<svg width="20" height="25" viewBox="0 0 20 25" fill="none" xmlns="http://www.w3.org/2000/svg">
<path d="M17.1531 14.9698C18.7034 14.9698 19.9601 16.2266 19.9601 17.7768V18.9059C19.9601 20.2703 19.3645 21.5668 18.3292 22.4555C16.3763 24.1322 13.5813 24.9516 9.97594 24.9516C6.37117 24.9516 3.57814 24.1325 1.62839 22.4562C0.594649 21.5674 0 20.272 0 18.9087V17.7768C0 16.2266 1.25673 14.9698 2.80698 14.9698H17.1531ZM9.84939 0.00854153L9.97636 0C10.45 0 10.8415 0.352 10.9035 0.808696L10.912 0.935659L10.911 1.87007L15.278 1.8707C16.8283 1.8707 18.085 3.12743 18.085 4.67768V10.2974C18.085 11.8476 16.8283 13.1043 15.278 13.1043H4.67388C3.12363 13.1043 1.8669 11.8476 1.8669 10.2974V4.67768C1.8669 3.12743 3.12363 1.8707 4.67388 1.8707L9.03971 1.87007L9.0407 0.935659C9.0407 0.461971 9.3927 0.0704977 9.84939 0.00854153ZM7.16808 5.61334C6.30732 5.61334 5.60954 6.31112 5.60954 7.17188C5.60954 8.03264 6.30732 8.73043 7.16808 8.73043C8.02884 8.73043 8.72663 8.03264 8.72663 7.17188C8.72663 6.31112 8.02884 5.61334 7.16808 5.61334ZM12.773 5.61334C11.9122 5.61334 11.2144 6.31112 11.2144 7.17188C11.2144 8.03264 11.9122 8.73043 12.773 8.73043C13.6337 8.73043 14.3315 8.03264 14.3315 7.17188C14.3315 6.31112 13.6337 5.61334 12.773 5.61334Z" fill="black"/>
</svg>
