<svg width="20" height="20" viewBox="0 0 20 20" fill="none" xmlns="http://www.w3.org/2000/svg">
<path d="M20 3C20 4.65685 18.6569 6 17 6C15.3431 6 14 4.65685 14 3C14 1.34315 15.3431 0 17 0C18.6569 0 20 1.34315 20 3Z" fill="black"/>
<path d="M13.2347 0.53476C12.2201 0.1881 11.132 0 10 0C4.47715 0 0 4.47715 0 10C0 11.5997 0.37562 13.1116 1.04346 14.4525C1.22094 14.8088 1.28001 15.2161 1.17712 15.6006L0.58151 17.8267C0.32295 18.793 1.20701 19.677 2.17335 19.4185L4.39938 18.8229C4.78393 18.72 5.19121 18.7791 5.54753 18.9565C6.88836 19.6244 8.4003 20 10 20C15.5228 20 20 15.5228 20 10C20 8.868 19.8119 7.77987 19.4652 6.76526C18.7572 7.22981 17.9101 7.5 17 7.5C14.5147 7.5 12.5 5.48528 12.5 3C12.5 2.08987 12.7702 1.24284 13.2347 0.53476Z" fill="black"/>
</svg>
