<svg width="63" height="43" viewBox="0 0 63 43" fill="none" xmlns="http://www.w3.org/2000/svg">
<rect opacity="0.21" width="63" height="43" rx="21.5" fill="#0E0E0E"/>
<g clip-path="url(#clip0_2611_373)">
<path fill-rule="evenodd" clip-rule="evenodd" d="M41.9375 24.9374L35.375 25.3749L37.5625 27.5624C33.9435 31.1814 28.0565 31.1814 24.4375 27.5624C22.2264 25.3513 21.3733 22.2932 21.865 19.4215L19.3442 19.5903C18.9294 23.0518 20.0371 26.6621 22.6875 29.3124C27.2708 33.8957 34.7292 33.8957 39.3125 29.3124L41.5 31.4999L41.9375 24.9374ZM26.625 16.625L24.4375 14.4375C28.0565 10.8185 33.9435 10.8185 37.5625 14.4375C39.7736 16.6486 40.6267 19.7067 40.1358 22.5776L42.6558 22.4096C43.0706 18.9481 41.9628 15.3378 39.3125 12.6875C34.7292 8.10423 27.2708 8.10423 22.6875 12.6875L20.5 10.5L20.0625 17.0625L26.625 16.625Z" fill="#FFC148"/>
</g>
<defs>
<clipPath id="clip0_2611_373">
<rect width="29.6984" height="29.6984" fill="white" transform="translate(31) rotate(45)"/>
</clipPath>
</defs>
</svg>
