<svg width="29" height="26" viewBox="0 0 29 26" fill="none" xmlns="http://www.w3.org/2000/svg">
<g clip-path="url(#clip0_4621_36)">
<path d="M9.69984 0.0132599C9.64485 0.0176601 9.47769 0.0308571 9.32592 0.044054C6.74809 0.266205 4.37481 1.37036 2.63939 3.15857C1.91794 3.90201 1.37466 4.66304 0.934758 5.54945C-0.301371 8.03271 -0.30797 10.8745 0.914963 13.3643C2.04991 15.676 4.17685 17.4994 6.75249 18.3704C8.03041 18.8038 9.32812 18.9863 10.7292 18.9335C13.8921 18.8148 16.8219 17.3279 18.6871 14.8908C19.6769 13.5997 20.2773 12.1216 20.4907 10.4588C20.5479 10.0233 20.5479 8.93671 20.4929 8.50121C20.3037 7.00993 19.8352 5.74521 19.017 4.52008C18.4473 3.66446 17.6313 2.80445 16.7779 2.15999C15.1964 0.967852 13.3972 0.268404 11.3605 0.0550518C11.0525 0.0220585 9.92419 -0.00653458 9.69984 0.0132599ZM10.9096 2.83744C12.1985 2.94742 13.4346 3.37193 14.4618 4.05818C14.8841 4.33972 15.1459 4.54867 15.4846 4.8742C16.4612 5.81559 17.0924 6.92855 17.363 8.18227C17.4597 8.63098 17.4927 8.94991 17.4949 9.458C17.4949 9.95729 17.4729 10.2124 17.385 10.6567C16.8439 13.4259 14.4266 15.6079 11.4045 16.0544C11.002 16.1137 10.771 16.1291 10.2827 16.1313C9.58547 16.1313 9.06418 16.0698 8.42192 15.9114C5.84848 15.2801 3.82933 13.3599 3.23326 10.9757C3.09689 10.4258 3.0507 10.0541 3.0529 9.46899C3.0529 8.31425 3.35423 7.24088 3.9503 6.2555C5.11824 4.32652 7.23198 3.0508 9.60746 2.83964C9.8912 2.81325 10.6214 2.81325 10.9096 2.83744Z" fill="#FFC148"/>
<path d="M19.5187 15.7001C18.9446 16.4832 17.9746 17.3718 17.185 17.8381C17.097 17.8887 17.0244 17.9393 17.0244 17.9481C17.0244 17.9591 18.0516 18.9048 19.3075 20.0508C20.5612 21.1967 22.4726 22.9432 23.5526 23.9285C24.6326 24.9161 25.5234 25.7256 25.5344 25.73C25.5563 25.7388 28.1584 23.3589 28.1496 23.3369C28.1452 23.3237 19.9036 15.7925 19.6726 15.5902C19.6286 15.5528 19.6242 15.555 19.5187 15.7001Z" fill="#FFC148"/>
</g>
<defs>
<clipPath id="clip0_4621_36">
<rect width="28.1538" height="25.7344" fill="white"/>
</clipPath>
</defs>
</svg>
